<svg xmlns="http://www.w3.org/2000/svg" xmlns:xlink="http://www.w3.org/1999/xlink" viewBox="0 0 401.03 519.08"><defs><style>.cls-1{fill:none;}.cls-2{clip-path:url(#clip-path);}.cls-3{fill:#6fbf9c;}.cls-4{fill:#fff;}</style><clipPath id="clip-path" transform="translate(0 0)"><rect class="cls-1" width="401.03" height="519.08"/></clipPath></defs><g id="Layer_2" data-name="Layer 2"><g id="Lager_1" data-name="Lager 1"><g class="cls-2"><path class="cls-3" d="M27.53,176.09c9.52.57,19.38.47,28.91.37,3.68,0,7.48-.07,11.24-.07h6.53c4.83,0,9.81,0,14.69,0,2.28,0,4.57,0,6.78,0,5.5.05,10.7.1,15.82-.33a30.19,30.19,0,0,0,19.61-50.58,27.84,27.84,0,0,0-19.69-9.11c-30-.94-57.69-.93-84.56,0a26.53,26.53,0,0,0-19.38,8.93A31.49,31.49,0,0,0,0,146.42c.07,16.51,11.38,28.71,27.53,29.67" transform="translate(0 0)"/><path class="cls-3" d="M67.68,402h6.53c4.82,0,9.81,0,14.7,0,2.27,0,4.56,0,6.77,0,5.5.05,10.69.1,15.82-.34a30.18,30.18,0,0,0,19.61-50.57,27.81,27.81,0,0,0-19.7-9.11c-15-.47-29.31-.7-43.28-.7s-27.77.23-41.27.71a26.46,26.46,0,0,0-19.38,8.93A31.45,31.45,0,0,0,0,372c.06,16.51,11.39,28.72,27.53,29.68,9.52.56,19.38.46,28.91.37,3.68,0,7.48-.08,11.24-.08" transform="translate(0 0)"/><path class="cls-4" d="M93.9,519.05l152.19-.3a187.92,187.92,0,0,0,20.18-1.28c12.75-1.48,32.24-4,54.49-14.85a141.75,141.75,0,0,0,70.4-77.17A152.39,152.39,0,0,0,401,370.39a149.07,149.07,0,0,0-26.71-84.66,144.63,144.63,0,0,0-30.13-31.81,137.34,137.34,0,0,0-38.6-21.09l-8.83-3.11,4.78-8.18a150.34,150.34,0,0,0,20-76.37A149,149,0,0,0,282.33,44.86a144.09,144.09,0,0,0-54-36.48,136.54,136.54,0,0,0-43-8.38H83.61c-1.73.05-4,.16-6.53.48,0,0-2,.25-3.69.55-14.46,2.56-29,17.53-27.23,37.25A34.62,34.62,0,0,0,58.09,62.14c1.45,1.24,9.76,8.19,21.1,8.19,11,0,38.14-.08,87.77-.28l18.17-.12a71.58,71.58,0,0,1,23.4,4.69,73.71,73.71,0,0,1,27.6,18.86,78.31,78.31,0,0,1,.76,104.83s-18.06,19.81-50.47,24.41c-3.22.46-6.43.66-6.43.66-2.66.17-5,.19-6.9.15H83.61c-1.73,0-4,.16-6.53.47,0,0-2,.25-3.69.56-14.46,2.56-29,17.53-27.23,37.25a34.64,34.64,0,0,0,11.93,23.86c1.45,1.24,9.76,8.19,21.1,8.19,11.88,0,64.32-.19,170.63-.62a86,86,0,0,1,38.13,6.6,75.89,75.89,0,0,1,27.62,18.85,78.35,78.35,0,0,1,.76,104.84,76.69,76.69,0,0,1-50.48,24.41l-1.69.13-180.55.68c-1.73,0-4,.16-6.53.47,0,0-2,.25-3.69.55-14.46,2.56-29,17.53-27.23,37.25a34.67,34.67,0,0,0,11.93,23.87c1.45,1.24,9.76,8.19,21.1,8.19l14.71,0" transform="translate(0 0)"/></g></g></g></svg>